#!OML:ASF I:\Actors\actors\Patient Classification 2\Patient 1\Session 1\actor1.ASF
:FULLY-SPECIFIED
:DEGREES
816
root -0.594085 18.8109 5.02325 6.8579 6.17856 -0.362408
lowerback 18.5861 0.443811 -0.807249
upperback -0.0706399 0.357982 -0.529962
thorax -10.5438 0.196305 -0.218495
lowerneck -14.6141 -0.788693 -2.97874
upperneck 11.6025 -0.841003 2.72309
head 5.93038 -0.325835 1.27115
rclavicle 1.75924e-014 1.61016e-014
rhumerus 29.8139 56.4766 -80.2454
rradius 144.249
rwrist -19.9539
rhand -26.9762 -27.3502
rfingers 7.12502
rthumb -0.397132 -57.3296
lclavicle 1.75924e-014 1.61016e-014
lhumerus 34.4993 -51.0893 77.0513
lradius 146.366
lwrist 43.4434
lhand -25.6625 -50.7001
lfingers 7.12502
lthumb 0.871676 -20.7221
rfemur -0.071469 -4.96884 14.1999
rtibia -1.19271e-014
rfoot -16.7733 -15.1037
rtoes -4.54329
lfemur -17.4741 -6.45369 -12.7508
ltibia 24.5949
lfoot -15.3658 5.82909
ltoes -56.5681
817
root -0.595406 18.8061 5.02279 6.54867 6.1448 -0.419412
lowerback 18.5538 0.431409 -0.625001
upperback -0.195023 0.375594 -0.573487
thorax -10.663 0.19358 -0.375546
lowerneck -14.4108 -0.79283 -2.78073
upperneck 11.7926 -0.8792 2.6086
head 5.95636 -0.345845 1.19967
rclavicle -8.54774e-015 -9.74045e-015
rhumerus 29.055 56.703 -80.9415
rradius 144.461
rwrist -20.4093
rhand -26.7447 -27.9894
rfingers 7.12502
rthumb -0.173495 -57.9691
lclavicle -8.54774e-015 -9.74045e-015
lhumerus 34.0027 -51.2816 77.4444
lradius 146.487
lwrist 44.4341
lhand -25.6486 -50.4184
lfingers 7.12502
lthumb 0.885132 -20.4405
rfemur 0.256064 -4.89743 14.2366
rtibia -7.95139e-016
rfoot -16.8373 -15.0865
rtoes -4.65076
lfemur -17.1174 -6.42083 -12.7308
ltibia 24.5728
lfoot -15.3666 5.77143
ltoes -56.6019
818
root -0.596922 18.8012 5.02256 6.27082 6.0776 -0.422623
lowerback 18.371 0.418098 -0.645944
upperback -0.23408 0.358472 -0.542001
thorax -10.6033 0.187713 -0.323147
lowerneck -14.3161 -0.760307 -2.75438
upperneck 11.9676 -0.838127 2.55752
head 5.99448 -0.32941 1.18356
rclavicle 3.47873e-016 -8.94531e-015
rhumerus 28.5725 56.9921 -81.3951
rradius 144.574
rwrist -20.8843
rhand -26.5269 -28.0769
rfingers 7.12502
rthumb 0.0368688 -58.0566
lclavicle 3.47873e-016 -8.94531e-015
lhumerus 33.6593 -51.1274 77.7479
lradius 146.564
lwrist 45.1492
lhand -25.8882 -50.2988
lfingers 7.12502
lthumb 0.653748 -20.3201
rfemur 0.554373 -4.80215 14.2154
rtibia 6.36111e-015
rfoot -16.8827 -15.0783
rtoes -4.71125
lfemur -16.7757 -6.39837 -12.7677
ltibia 24.5432
lfoot -15.4175 5.78043
ltoes -56.6676
819
root -0.599119 18.797 5.02359 6.00563 6.00265 -0.39994
lowerback 18.1352 0.423732 -0.654461
upperback -0.254371 0.367348 -0.533829
thorax -10.4922 0.192694 -0.309866
lowerneck -14.3088 -0.771972 -2.88807
upperneck 12.229 -0.846266 2.6636
head 6.07743 -0.331207 1.23935
rclavicle 1.73937e-015 -4.17448e-015
rhumerus 28.1919 56.8871 -81.8044
rradius 144.526
rwrist -21.6882
rhand -26.4234 -27.5521
rfingers 7.12502
rthumb 0.136791 -57.5318
lclavicle 1.73937e-015 -4.17448e-015
lhumerus 33.3007 -51.0664 78.105
lradius 146.604
lwrist 45.7109
lhand -26.0591 -50.2632
lfingers 7.12502
lthumb 0.488709 -20.284
rfemur 0.844127 -4.70275 14.1698
rtibia -5.56597e-015
rfoot -16.8803 -15.0779
rtoes -5.02003
lfemur -16.4355 -6.36625 -12.8301
ltibia 24.5099
lfoot -15.4854 5.81522
ltoes -56.7582
820
root -0.600799 18.7936 5.02405 5.73919 5.9442 -0.361166
lowerback 17.9123 0.436834 -0.790064
upperback -0.259072 0.368098 -0.443681
thorax -10.3724 0.203055 -0.132543
lowerneck -14.3213 -0.774426 -3.02563
upperneck 12.4864 -0.826243 2.67523
head 6.16141 -0.327205 1.26839
rclavicle 1.63997e-015 1.68967e-014
rhumerus 27.976 56.8302 -81.9524
rradius 144.583
rwrist -22.6036
rhand -26.2503 -27.5345
rfingers 7.12502
rthumb 0.303973 -57.514
lclavicle 1.63997e-015 1.68967e-014
lhumerus 32.8882 -51.0298 78.6417
lradius 146.655
lwrist 46.2499
lhand -26.0743 -50.1452
lfingers 7.12502
lthumb 0.474014 -20.166
rfemur 1.13764 -4.62095 14.1063
rtibia 6.36111e-015
rfoot -16.8552 -15.0756
rtoes -5.3729
lfemur -16.0966 -6.36824 -12.9037
ltibia 24.4792
lfoot -15.5531 5.81886
ltoes -56.7529
821
root -0.601639 18.7905 5.02123 5.46783 5.90149 -0.328767
lowerback 17.4745 0.413454 -1.11621
upperback -0.0702996 0.299612 -0.226518
thorax -9.91732 0.192382 0.311448
lowerneck -14.3673 -0.696081 -3.11043
upperneck 12.4823 -0.682534 2.55451
head 6.16347 -0.271324 1.25715
rclavicle -7.90169e-015 -1.15295e-014
rhumerus 28.4849 57.0624 -81.4304
rradius 144.722
rwrist -23.4333
rhand -26.2044 -28.1015
rfingers 7.12502
rthumb 0.348292 -58.081
lclavicle -7.90169e-015 -1.15295e-014
lhumerus 32.9818 -50.7245 78.7801
lradius 146.794
lwrist 47.0483
lhand -26.1713 -49.8149
lfingers 7.12502
lthumb 0.380273 -19.8355
rfemur 1.42577 -4.55339 14.0484
rtibia 2.38542e-015
rfoot -16.8228 -15.0992
rtoes -5.60311
lfemur -15.7691 -6.40066 -12.9664
ltibia 24.4486
lfoot -15.5893 5.77795
ltoes -56.6659
822
root -0.603267 18.7862 5.01714 5.18668 5.86942 -0.345176
lowerback 17.6492 0.431626 -0.810333
upperback -0.291669 0.368081 -0.364939
thorax -10.2598 0.206512 -0.0332914
lowerneck -14.2219 -0.780132 -3.14531
upperneck 12.8046 -0.83198 2.77415
head 6.24696 -0.328644 1.32038
rclavicle 5.76476e-015 -1.61016e-014
rhumerus 27.5302 56.9572 -82.3398
rradius 144.766
rwrist -23.7839
rhand -26.154 -28.173
rfingers 7.12502
rthumb 0.397029 -58.1524
lclavicle 5.76476e-015 -1.61016e-014
lhumerus 32.4109 -51.0973 79.1761
lradius 146.963
lwrist 47.9778
lhand -26.2301 -49.3351
lfingers 7.12502
lthumb 0.323548 -19.3556
rfemur 1.71427 -4.49071 14.0466
rtibia 7.95139e-016
rfoot -16.8078 -15.1141
rtoes -5.72049
lfemur -15.4497 -6.37578 -12.9764
ltibia 24.4191
lfoot -15.5889 5.67104
ltoes -56.5594
823
root -0.604946 18.7812 5.01537 4.88986 5.82158 -0.349953
lowerback 17.5797 0.442139 -0.684513
upperback -0.337495 0.403193 -0.4154
thorax -10.2701 0.215092 -0.168824
lowerneck -14.1672 -0.824309 -3.1601
upperneck 13.0145 -0.904122 2.84082
head 6.30721 -0.359272 1.33824
rclavicle -4.96962e-017 -1.68967e-014
rhumerus 27.0737 56.7884 -82.7815
rradius 144.812
rwrist -24.2394
rhand -25.9059 -28.0173
rfingers 7.12502
rthumb 0.636624 -57.9961
lclavicle -4.96962e-017 -1.68967e-014
lhumerus 32.0456 -51.0767 79.5841
lradius 146.9
lwrist 48.2831
lhand -26.203 -48.8769
lfingers 7.12502
lthumb 0.349727 -18.8974
rfemur 2.02778 -4.41183 14.0285
rtibia 0
rfoot -16.8154 -15.1054
rtoes -5.82473
lfemur -15.1009 -6.33303 -13.0045
ltibia 24.3919
lfoot -15.6249 5.60209
ltoes -56.5251
